<?xml version="1.0" ?><!DOCTYPE svg  PUBLIC '-//W3C//DTD SVG 1.1//EN'  'http://www.w3.org/Graphics/SVG/1.1/DTD/svg11.dtd'><svg enable-background="new 0 0 24 24" height="24px" id="Layer_1" version="1.1" viewBox="0 0 24 24" width="24px" xml:space="preserve" xmlns="http://www.w3.org/2000/svg" xmlns:xlink="http://www.w3.org/1999/xlink"><g><g><path clip-rule="evenodd" d="M19,14h-1.909c0.011,0-0.009,0-0.091,0v-4h2c2.762,0,5-2.238,5-5s-2.238-5-5-5    s-5,2.238-5,5v1.91c0-0.011,0,0.009,0,0.09h-4V5c0-2.762-2.238-5-5-5S0,2.238,0,5s2.238,5,5,5h1.91C6.899,10,6.919,10,7,10v4H5    c-2.762,0-5,2.238-5,5s2.238,5,5,5s5-2.238,5-5v-1.91c0,0.012,0-0.008,0-0.09h4v2c0,2.762,2.238,5,5,5s5-2.238,5-5    S21.762,14,19,14z M17,5c0-1.104,0.896-2,2-2s2,0.896,2,2s-0.896,2-2,2c-0.521,0-2,0-2,0S17,5.584,17,5z M7,19    c0,1.104-0.896,2-2,2s-2-0.896-2-2s0.896-2,2-2c0.521,0,2,0,2,0S7,18.416,7,19z M7,7c0,0-1.416,0-2,0C3.896,7,3,6.104,3,5    s0.896-2,2-2s2,0.896,2,2C7,5.521,7,7,7,7z M14,14h-4v-4h4V14z M19,21c-1.104,0-2-0.896-2-2c0-0.521,0-2,0-2s1.416,0,2,0    c1.104,0,2,0.896,2,2S20.104,21,19,21z" fill-rule="evenodd"/></g></g></svg>